<svg xmlns="http://www.w3.org/2000/svg" viewBox="0 0 700 640" width="100%" height="100%">
<defs>
  <marker id="arrow" viewBox="0 0 10 10" refX="8" refY="5" markerWidth="6" markerHeight="6" orient="auto-start-reverse">
    <path d="M 0 1 L 10 5 L 0 9 z" fill="#4B5563" />
  </marker>
  <marker id="seq-arrow" viewBox="0 0 10 10" refX="8" refY="5" markerWidth="6" markerHeight="6" orient="auto-start-reverse">
    <path d="M 0 1 L 10 5 L 0 9 z" fill="#2563EB" />
  </marker>
  <marker id="cross-arrow" viewBox="0 0 10 10" refX="8" refY="5" markerWidth="6" markerHeight="6" orient="auto-start-reverse">
    <path d="M 0 1 L 10 5 L 0 9 z" fill="#EF4444" />
  </marker>
  <marker id="milestone-arrow" viewBox="0 0 12 12" refX="9" refY="6" markerWidth="8" markerHeight="8" orient="auto-start-reverse">
    <path d="M 0 1 L 12 6 L 0 11 z" fill="#6366F1" />
  </marker>
  <filter id="shadow" x="-5%" y="-5%" width="115%" height="115%">
    <feDropShadow dx="0" dy="2" stdDeviation="3" flood-opacity="0.1" />
  </filter>
</defs>
<style>
  .title { font-family: -apple-system, BlinkMacSystemFont, "Segoe UI", Roboto, sans-serif; font-size: 18px; font-weight: bold; fill: #1F2937; }
  .lane-title { font-family: -apple-system, BlinkMacSystemFont, "Segoe UI", Roboto, sans-serif; font-size: 14px; font-weight: 600; fill: #374151; }
  .node-title { font-family: -apple-system, BlinkMacSystemFont, "Segoe UI", Roboto, sans-serif; font-size: 13px; font-weight: 600; fill: #111827; }
  .node-desc { font-family: -apple-system, BlinkMacSystemFont, "Segoe UI", Roboto, sans-serif; font-size: 11px; fill: #6B7280; }
  .node-badge { font-family: -apple-system, BlinkMacSystemFont, "Segoe UI", Roboto, sans-serif; font-size: 9px; font-weight: bold; }
  .edge-label { font-family: -apple-system, BlinkMacSystemFont, "Segoe UI", Roboto, sans-serif; font-size: 10px; fill: #4B5563; }
  .state-label { font-family: -apple-system, BlinkMacSystemFont, "Segoe UI", Roboto, sans-serif; font-size: 11px; font-weight: 600; }
</style>
<rect width="100%" height="100%" fill="#F8FAFC" />
<text x="50" y="28" class="title">if_than_else.xml Workflow (ER Diagram)</text>
<rect x="50" y="80" width="260" height="130" rx="6" fill="#FFFFFF" stroke="#059669" stroke-width="1.8" filter="url(#shadow)" />
<rect x="50" y="80" width="260" height="30" rx="6" fill="#2563EB" />
<rect x="50" y="102" width="260" height="8" fill="#2563EB" />
<text x="60" y="100" font-family="-apple-system, sans-serif" font-size="11" font-weight="bold" fill="#FFFFFF">[ENTITY]  ScriptA</text>
<text x="60" y="130" font-family="'Consolas', monospace" font-size="10" fill="#334155">PK  id : bigint</text>
<text x="60" y="148" font-family="'Consolas', monospace" font-size="10" fill="#334155">    created_at : datetime</text>
<text x="60" y="166" font-family="'Consolas', monospace" font-size="10" fill="#334155">    type : DatabaseQuery</text>
<text x="60" y="184" font-family="'Consolas', monospace" font-size="10" fill="#334155">    status : varchar(20)</text>
<rect x="390" y="80" width="260" height="130" rx="6" fill="#FFFFFF" stroke="#059669" stroke-width="1.8" filter="url(#shadow)" />
<rect x="390" y="80" width="260" height="30" rx="6" fill="#059669" />
<rect x="390" y="102" width="260" height="8" fill="#059669" />
<text x="400" y="100" font-family="-apple-system, sans-serif" font-size="11" font-weight="bold" fill="#FFFFFF">[TABLE]  sys.databases</text>
<text x="400" y="130" font-family="'Consolas', monospace" font-size="10" fill="#334155">PK  id : bigint</text>
<text x="400" y="148" font-family="'Consolas', monospace" font-size="10" fill="#334155">    created_at : datetime</text>
<text x="400" y="166" font-family="'Consolas', monospace" font-size="10" fill="#334155">    status : varchar(50)</text>
<text x="400" y="184" font-family="'Consolas', monospace" font-size="10" fill="#334155">    payload : nvarchar(max)</text>
<rect x="50" y="270" width="260" height="130" rx="6" fill="#FFFFFF" stroke="#059669" stroke-width="1.8" filter="url(#shadow)" />
<rect x="50" y="270" width="260" height="30" rx="6" fill="#2563EB" />
<rect x="50" y="292" width="260" height="8" fill="#2563EB" />
<text x="60" y="290" font-family="-apple-system, sans-serif" font-size="11" font-weight="bold" fill="#FFFFFF">[ENTITY]  IF_2</text>
<text x="60" y="320" font-family="'Consolas', monospace" font-size="10" fill="#334155">PK  id : bigint</text>
<text x="60" y="338" font-family="'Consolas', monospace" font-size="10" fill="#334155">    created_at : datetime</text>
<text x="60" y="356" font-family="'Consolas', monospace" font-size="10" fill="#334155">    type : Condition</text>
<text x="60" y="374" font-family="'Consolas', monospace" font-size="10" fill="#334155">    status : varchar(20)</text>
<rect x="390" y="270" width="260" height="130" rx="6" fill="#FFFFFF" stroke="#059669" stroke-width="1.8" filter="url(#shadow)" />
<rect x="390" y="270" width="260" height="30" rx="6" fill="#2563EB" />
<rect x="390" y="292" width="260" height="8" fill="#2563EB" />
<text x="400" y="290" font-family="-apple-system, sans-serif" font-size="11" font-weight="bold" fill="#FFFFFF">[ENTITY]  GroupA</text>
<text x="400" y="320" font-family="'Consolas', monospace" font-size="10" fill="#334155">PK  id : bigint</text>
<text x="400" y="338" font-family="'Consolas', monospace" font-size="10" fill="#334155">    created_at : datetime</text>
<text x="400" y="356" font-family="'Consolas', monospace" font-size="10" fill="#334155">    type : Group</text>
<text x="400" y="374" font-family="'Consolas', monospace" font-size="10" fill="#334155">    status : varchar(20)</text>
<rect x="50" y="460" width="260" height="130" rx="6" fill="#FFFFFF" stroke="#059669" stroke-width="1.8" filter="url(#shadow)" />
<rect x="50" y="460" width="260" height="30" rx="6" fill="#2563EB" />
<rect x="50" y="482" width="260" height="8" fill="#2563EB" />
<text x="60" y="480" font-family="-apple-system, sans-serif" font-size="11" font-weight="bold" fill="#FFFFFF">[ENTITY]  GroupB</text>
<text x="60" y="510" font-family="'Consolas', monospace" font-size="10" fill="#334155">PK  id : bigint</text>
<text x="60" y="528" font-family="'Consolas', monospace" font-size="10" fill="#334155">    created_at : datetime</text>
<text x="60" y="546" font-family="'Consolas', monospace" font-size="10" fill="#334155">    type : Group</text>
<text x="60" y="564" font-family="'Consolas', monospace" font-size="10" fill="#334155">    status : varchar(20)</text>
<rect x="390" y="460" width="260" height="130" rx="6" fill="#FFFFFF" stroke="#059669" stroke-width="1.8" filter="url(#shadow)" />
<rect x="390" y="460" width="260" height="30" rx="6" fill="#2563EB" />
<rect x="390" y="482" width="260" height="8" fill="#2563EB" />
<text x="400" y="480" font-family="-apple-system, sans-serif" font-size="11" font-weight="bold" fill="#FFFFFF">[ENTITY]  GroupA_Alt_Step1</text>
<text x="400" y="510" font-family="'Consolas', monospace" font-size="10" fill="#334155">PK  id : bigint</text>
<text x="400" y="528" font-family="'Consolas', monospace" font-size="10" fill="#334155">    created_at : datetime</text>
<text x="400" y="546" font-family="'Consolas', monospace" font-size="10" fill="#334155">    type : DatabaseQuery</text>
<text x="400" y="564" font-family="'Consolas', monospace" font-size="10" fill="#334155">    status : varchar(20)</text>
<line x1="180" y1="145" x2="520" y2="145" stroke="#059669" stroke-width="1.8" stroke-dasharray="4,3" marker-end="url(#arrow)" />
<rect x="332" y="137" width="36" height="15" rx="3" fill="#ECFDF5" stroke="#A7F3D0" />
<text x="350" y="148" font-family="-apple-system, sans-serif" font-size="9" font-weight="bold" fill="#047857" text-anchor="middle">FROM</text>
<line x1="180" y1="145" x2="180" y2="335" stroke="#059669" stroke-width="1.8" stroke-dasharray="4,3" marker-end="url(#arrow)" />
<rect x="144" y="232" width="72" height="15" rx="3" fill="#ECFDF5" stroke="#A7F3D0" />
<text x="180" y="243" font-family="-apple-system, sans-serif" font-size="9" font-weight="bold" fill="#047857" text-anchor="middle">relates to</text>
<line x1="180" y1="335" x2="520" y2="335" stroke="#059669" stroke-width="1.8" stroke-dasharray="4,3" marker-end="url(#arrow)" />
<rect x="332" y="327" width="36" height="15" rx="3" fill="#ECFDF5" stroke="#A7F3D0" />
<text x="350" y="338" font-family="-apple-system, sans-serif" font-size="9" font-weight="bold" fill="#047857" text-anchor="middle">true</text>
<line x1="180" y1="335" x2="180" y2="525" stroke="#059669" stroke-width="1.8" stroke-dasharray="4,3" marker-end="url(#arrow)" />
<rect x="159" y="422" width="42" height="15" rx="3" fill="#ECFDF5" stroke="#A7F3D0" />
<text x="180" y="433" font-family="-apple-system, sans-serif" font-size="9" font-weight="bold" fill="#047857" text-anchor="middle">false</text>
<line x1="520" y1="335" x2="520" y2="525" stroke="#059669" stroke-width="1.8" stroke-dasharray="4,3" marker-end="url(#arrow)" />
<rect x="484" y="422" width="72" height="15" rx="3" fill="#ECFDF5" stroke="#A7F3D0" />
<text x="520" y="433" font-family="-apple-system, sans-serif" font-size="9" font-weight="bold" fill="#047857" text-anchor="middle">relates to</text>
<line x1="180" y1="525" x2="520" y2="525" stroke="#059669" stroke-width="1.8" stroke-dasharray="4,3" marker-end="url(#arrow)" />
<rect x="314" y="517" width="72" height="15" rx="3" fill="#ECFDF5" stroke="#A7F3D0" />
<text x="350" y="528" font-family="-apple-system, sans-serif" font-size="9" font-weight="bold" fill="#047857" text-anchor="middle">relates to</text>
</svg>
