<svg xmlns="http://www.w3.org/2000/svg" viewBox="0 0 764 843" width="100%" height="100%">
<defs>
  <marker id="arrow" viewBox="0 0 10 10" refX="8" refY="5" markerWidth="6" markerHeight="6" orient="auto-start-reverse">
    <path d="M 0 1 L 10 5 L 0 9 z" fill="#4B5563" />
  </marker>
  <marker id="seq-arrow" viewBox="0 0 10 10" refX="8" refY="5" markerWidth="6" markerHeight="6" orient="auto-start-reverse">
    <path d="M 0 1 L 10 5 L 0 9 z" fill="#2563EB" />
  </marker>
  <marker id="cross-arrow" viewBox="0 0 10 10" refX="8" refY="5" markerWidth="6" markerHeight="6" orient="auto-start-reverse">
    <path d="M 0 1 L 10 5 L 0 9 z" fill="#EF4444" />
  </marker>
  <marker id="milestone-arrow" viewBox="0 0 12 12" refX="9" refY="6" markerWidth="8" markerHeight="8" orient="auto-start-reverse">
    <path d="M 0 1 L 12 6 L 0 11 z" fill="#6366F1" />
  </marker>
  <filter id="shadow" x="-5%" y="-5%" width="115%" height="115%">
    <feDropShadow dx="0" dy="2" stdDeviation="3" flood-opacity="0.1" />
  </filter>
</defs>
<style>
  .title { font-family: -apple-system, BlinkMacSystemFont, "Segoe UI", Roboto, sans-serif; font-size: 18px; font-weight: bold; fill: #1F2937; }
  .lane-title { font-family: -apple-system, BlinkMacSystemFont, "Segoe UI", Roboto, sans-serif; font-size: 14px; font-weight: 600; fill: #374151; }
  .node-title { font-family: -apple-system, BlinkMacSystemFont, "Segoe UI", Roboto, sans-serif; font-size: 13px; font-weight: 600; fill: #111827; }
  .node-desc { font-family: -apple-system, BlinkMacSystemFont, "Segoe UI", Roboto, sans-serif; font-size: 11px; fill: #6B7280; }
  .node-badge { font-family: -apple-system, BlinkMacSystemFont, "Segoe UI", Roboto, sans-serif; font-size: 9px; font-weight: bold; }
  .edge-label { font-family: -apple-system, BlinkMacSystemFont, "Segoe UI", Roboto, sans-serif; font-size: 10px; fill: #4B5563; }
  .state-label { font-family: -apple-system, BlinkMacSystemFont, "Segoe UI", Roboto, sans-serif; font-size: 11px; font-weight: 600; }
</style>
<rect width="100%" height="100%" fill="#F9FAFB" />
<text x="40" y="28" class="title">liquibase Workflow (Flowchart TD)</text>
<rect x="40" y="60" width="312" height="763" rx="8" fill="#F3F4F6" stroke="#E5E7EB" stroke-width="1.5" />
<rect x="40" y="60" width="312" height="45" rx="8" fill="#E5E7EB" />
<text x="196" y="87" class="lane-title" text-anchor="middle">Liquibase (01_core_schema)</text>
<rect x="55" y="125" width="260" height="70" rx="6" fill="#FFFFFF" stroke="#10B981" stroke-width="1.5" filter="url(#shadow)" />
<rect x="65" y="133" width="112" height="15" rx="3" fill="#059669" opacity="0.15" />
<text x="70" y="144" class="node-badge" fill="#059669">TableOperation</text>
<text x="65" y="167" class="node-title">db_admin:1</text>
<text x="65" y="183" class="node-desc">Create customers table</text>
<rect x="55" y="230" width="260" height="70" rx="6" fill="#FFFFFF" stroke="#10B981" stroke-width="1.5" filter="url(#shadow)" />
<rect x="65" y="238" width="112" height="15" rx="3" fill="#059669" opacity="0.15" />
<text x="70" y="249" class="node-badge" fill="#059669">TableOperation</text>
<text x="65" y="272" class="node-title">db_admin:2</text>
<text x="65" y="288" class="node-desc">Create merchants table</text>
<rect x="55" y="335" width="260" height="102" rx="6" fill="#FFFFFF" stroke="#9CA3AF" stroke-width="1.5" filter="url(#shadow)" />
<rect x="65" y="343" width="77" height="15" rx="3" fill="#4B5563" opacity="0.15" />
<text x="70" y="354" class="node-badge" fill="#4B5563">Milestone</text>
<text x="65" y="377" class="node-title">db_admin:3</text>
<text x="65" y="393" class="node-desc">Create index idx_customers_email on</text>
<text x="65" y="409" class="node-desc">customers; Tag database milestone:</text>
<text x="65" y="425" class="node-desc">v1.0-baseline</text>
<rect x="55" y="472" width="260" height="86" rx="6" fill="#FFFFFF" stroke="#10B981" stroke-width="1.5" filter="url(#shadow)" />
<rect x="65" y="480" width="105" height="15" rx="3" fill="#059669" opacity="0.15" />
<text x="70" y="491" class="node-badge" fill="#059669">DatabaseTable</text>
<text x="65" y="514" class="node-title">customers</text>
<text x="65" y="530" class="node-desc">Customer profile and authentication</text>
<text x="65" y="546" class="node-desc">records</text>
<rect x="55" y="593" width="260" height="70" rx="6" fill="#FFFFFF" stroke="#10B981" stroke-width="1.5" filter="url(#shadow)" />
<rect x="65" y="601" width="105" height="15" rx="3" fill="#059669" opacity="0.15" />
<text x="70" y="612" class="node-badge" fill="#059669">DatabaseTable</text>
<text x="65" y="635" class="node-title">merchants</text>
<text x="65" y="651" class="node-desc">Merchant store entities</text>
<rect x="412" y="60" width="312" height="763" rx="8" fill="#F3F4F6" stroke="#E5E7EB" stroke-width="1.5" />
<rect x="412" y="60" width="312" height="45" rx="8" fill="#E5E7EB" />
<text x="568" y="87" class="lane-title" text-anchor="middle">Liquibase (02_orders_and_payments)</text>
<rect x="427" y="125" width="260" height="86" rx="6" fill="#FFFFFF" stroke="#10B981" stroke-width="1.5" filter="url(#shadow)" />
<rect x="437" y="133" width="112" height="15" rx="3" fill="#059669" opacity="0.15" />
<text x="442" y="144" class="node-badge" fill="#059669">TableOperation</text>
<text x="437" y="167" class="node-title">architect:orders-v1</text>
<text x="437" y="183" class="node-desc">Create orders table with foreign</text>
<text x="437" y="199" class="node-desc">keys to customers and merchants</text>
<rect x="427" y="246" width="260" height="86" rx="6" fill="#FFFFFF" stroke="#10B981" stroke-width="1.5" filter="url(#shadow)" />
<rect x="437" y="254" width="112" height="15" rx="3" fill="#059669" opacity="0.15" />
<text x="442" y="265" class="node-badge" fill="#059669">TableOperation</text>
<text x="437" y="288" class="node-title">architect:payments-v1</text>
<text x="437" y="304" class="node-desc">Create payments table with foreign</text>
<text x="437" y="320" class="node-desc">key to orders</text>
<rect x="427" y="367" width="260" height="86" rx="6" fill="#FFFFFF" stroke="#8B5CF6" stroke-width="1.5" filter="url(#shadow)" />
<rect x="437" y="375" width="42" height="15" rx="3" fill="#7C3AED" opacity="0.15" />
<text x="442" y="386" class="node-badge" fill="#7C3AED">View</text>
<text x="437" y="409" class="node-title">architect:views-and-procs</text>
<text x="437" y="425" class="node-desc">Create analytics view for merchant</text>
<text x="437" y="441" class="node-desc">billing</text>
<rect x="427" y="488" width="260" height="70" rx="6" fill="#FFFFFF" stroke="#10B981" stroke-width="1.5" filter="url(#shadow)" />
<rect x="437" y="496" width="105" height="15" rx="3" fill="#059669" opacity="0.15" />
<text x="442" y="507" class="node-badge" fill="#059669">DatabaseQuery</text>
<text x="437" y="530" class="node-title">architect:milestone-v1.1</text>
<text x="437" y="546" class="node-desc">Tag database release milestone</text>
<rect x="427" y="593" width="260" height="70" rx="6" fill="#FFFFFF" stroke="#10B981" stroke-width="1.5" filter="url(#shadow)" />
<rect x="437" y="601" width="105" height="15" rx="3" fill="#059669" opacity="0.15" />
<text x="442" y="612" class="node-badge" fill="#059669">DatabaseTable</text>
<text x="437" y="635" class="node-title">orders</text>
<text x="437" y="651" class="node-desc">Database Table orders</text>
<rect x="427" y="698" width="260" height="70" rx="6" fill="#FFFFFF" stroke="#10B981" stroke-width="1.5" filter="url(#shadow)" />
<rect x="437" y="706" width="105" height="15" rx="3" fill="#059669" opacity="0.15" />
<text x="442" y="717" class="node-badge" fill="#059669">DatabaseTable</text>
<text x="437" y="740" class="node-title">payments</text>
<text x="437" y="756" class="node-desc">Database Table payments</text>
<path d="M 185 195 L 185 230" fill="none" stroke="#4B5563" stroke-width="1.8" marker-end="url(#arrow)"  />
<rect x="141" y="202" width="88" height="16" rx="3" fill="#FFFFFF" opacity="0.9" />
<text x="185" y="214" class="edge-label" text-anchor="middle">executes next</text>
<path d="M 185 300 L 185 335" fill="none" stroke="#4B5563" stroke-width="1.8" marker-end="url(#arrow)"  />
<rect x="141" y="308" width="88" height="16" rx="3" fill="#FFFFFF" opacity="0.9" />
<text x="185" y="320" class="edge-label" text-anchor="middle">executes next</text>
<path d="M 557 211 L 557 246" fill="none" stroke="#4B5563" stroke-width="1.8" marker-end="url(#arrow)"  />
<rect x="513" y="218" width="88" height="16" rx="3" fill="#FFFFFF" opacity="0.9" />
<text x="557" y="230" class="edge-label" text-anchor="middle">executes next</text>
<path d="M 557 332 L 557 367" fill="none" stroke="#4B5563" stroke-width="1.8" marker-end="url(#arrow)"  />
<rect x="513" y="340" width="88" height="16" rx="3" fill="#FFFFFF" opacity="0.9" />
<text x="557" y="352" class="edge-label" text-anchor="middle">executes next</text>
<path d="M 557 453 L 557 488" fill="none" stroke="#4B5563" stroke-width="1.8" marker-end="url(#arrow)"  />
<rect x="513" y="460" width="88" height="16" rx="3" fill="#FFFFFF" opacity="0.9" />
<text x="557" y="472" class="edge-label" text-anchor="middle">executes next</text>
<path d="M 557 768 L 557 593" fill="none" stroke="#4B5563" stroke-width="1.8" marker-end="url(#arrow)"  />
<rect x="462" y="670" width="190" height="16" rx="3" fill="#FFFFFF" opacity="0.9" />
<text x="557" y="682" class="edge-label" text-anchor="middle">references (fk_payments_order)</text>
<path d="M 427 628 C 371 628, 371 515, 315 515" fill="none" stroke="#EF4444" stroke-width="1.8" marker-end="url(#cross-arrow)" stroke-dasharray="5,4" />
<rect x="273" y="562" width="196" height="16" rx="3" fill="#FFFFFF" opacity="0.9" />
<text x="371" y="574" class="edge-label" text-anchor="middle">references (fk_orders_customer)</text>
<path d="M 427 628 C 371 628, 371 628, 315 628" fill="none" stroke="#EF4444" stroke-width="1.8" marker-end="url(#cross-arrow)" stroke-dasharray="5,4" />
<rect x="273" y="618" width="196" height="16" rx="3" fill="#FFFFFF" opacity="0.9" />
<text x="371" y="630" class="edge-label" text-anchor="middle">references (fk_orders_merchant)</text>
</svg>
